<svg xmlns="http://www.w3.org/2000/svg" xmlns:svg="http://www.w3.org/2000/svg" id="svg2" width="245.672" height="111.88" version="1.1" viewBox="0 0 245.672 111.88" xml:space="preserve"><metadata id="metadata8"/><defs id="defs6"><clipPath id="clipPath18" clipPathUnits="userSpaceOnUse"><path id="path16" d="M 0,419.527 H 595.275 V 0 H 0 Z"/></clipPath></defs><g id="g10" transform="matrix(1.3333333,0,0,-1.3333333,-274.01413,338.80853)"><g id="g12"><g id="g14" clip-path="url(#clipPath18)"><g id="g20" transform="translate(376.6846,203.1201)"><path id="path22" d="m 0,0 c -5.234,0 -8.502,4.213 -8.502,9.23 0,5.014 3.34,9.303 8.356,9.303 2.396,0 5.017,-1.166 6.322,-2.91 l 6.904,7.994 c -2.836,2.908 -8.281,4.869 -13.443,4.869 -11.262,0 -20.205,-7.485 -20.205,-19.256 0,-11.996 8.871,-19.263 20.279,-19.263 5.305,0 10.391,1.744 13.369,4.656 L 6.469,2.686 C 5.016,0.941 2.395,0 0,0" style="fill:#003893;fill-opacity:1;fill-rule:nonzero;stroke:none"/></g><path id="path24" d="m 338.657,194.253 h 11.924 v 36.191 h -11.924 z" style="fill:#003893;fill-opacity:1;fill-rule:nonzero;stroke:none"/><g id="g26" transform="translate(225.9326,221.6494)"><path id="path28" d="m 0,0 c 2.4,0 5.014,-1.162 6.324,-2.903 l 6.903,7.991 c -2.834,2.908 -8.286,4.869 -13.444,4.869 -11.267,0 -20.205,-7.485 -20.205,-19.26 0,-11.986 8.865,-19.256 20.277,-19.256 5.303,0 10.393,1.746 13.372,4.649 l -6.614,8.07 c -1.455,-1.744 -4.068,-2.691 -6.468,-2.691 -5.229,0 -8.502,4.217 -8.502,9.228 C -8.357,-4.285 -5.012,0 0,0" style="fill:#003893;fill-opacity:1;fill-rule:nonzero;stroke:none"/></g><g id="g30" transform="translate(318.7549,231.4619)"><path id="path32" d="m 0,0 c -5.014,0 -9.154,-2.834 -10.826,-6.03 h -0.143 v 5.012 h -11.558 v -20.684 c 2.657,-2.823 4.326,-6.631 4.326,-10.895 0,-1.612 -0.244,-3.157 -0.682,-4.612 h 8.346 v 19.621 c 0,4.145 2.18,7.779 6.396,7.779 4.289,0 5.375,-3.634 5.375,-7.63 v -19.77 h 12.002 v 22.383 C 13.236,-7.558 9.746,0 0,0" style="fill:#003893;fill-opacity:1;fill-rule:nonzero;stroke:none"/></g><g id="g34" transform="translate(268.8057,198.7061)"><path id="path36" d="m 0,0 c 0,1.658 0.262,3.264 0.743,4.777 h -13.159 l 17.52,18.022 v 8.939 H -25.785 V 22.582 H -9.432 L -26.436,4.85 V -4.453 H 0.656 C 0.237,-3.049 0,-1.56 0,0" style="fill:#003893;fill-opacity:1;fill-rule:nonzero;stroke:none"/></g><g id="g38" transform="translate(284.7773,188.9463)"><path id="path40" d="m 0,0 c -5.405,0 -10.021,4.247 -10.021,9.821 0,5.466 4.521,10.022 10.021,10.022 5.302,0 9.823,-4.356 9.823,-9.923 C 9.823,4.349 5.302,0 0,0" style="fill:#ce1126;fill-opacity:1;fill-rule:nonzero;stroke:none"/></g></g></g></g></svg>