<svg xmlns="http://www.w3.org/2000/svg" xmlns:svg="http://www.w3.org/2000/svg" id="svg823" width="560mm" height="560mm" version="1.1" viewBox="0 0 560 560"><metadata id="metadata820"/><g id="layer1" transform="translate(-22.999939,286)"><circle style="opacity:1;fill:#dc0000;fill-opacity:1;fill-rule:nonzero;stroke:none;stroke-width:.07791566;stroke-linecap:square;stroke-linejoin:round;stroke-miterlimit:10;stroke-dasharray:none;stroke-opacity:1;paint-order:stroke fill markers" id="path814" cx="303" cy="-6" r="280"/><circle id="circle816" cx="303" cy="-6" r="220" style="opacity:1;fill:#fff;fill-opacity:1;fill-rule:nonzero;stroke:none;stroke-width:.06121945;stroke-linecap:square;stroke-linejoin:round;stroke-miterlimit:10;stroke-dasharray:none;stroke-opacity:1;paint-order:stroke fill markers"/><path id="path1477" d="M 209.99995,-75.999988 H 230 v 119.99996 h 39.99994 v 20 h -59.99999 z" style="opacity:1;fill:#000;fill-opacity:1;fill-rule:nonzero;stroke:none;stroke-width:3.3682878;stroke-linejoin:bevel;stroke-miterlimit:10;stroke-dasharray:none;stroke-opacity:1"/><path id="path1481" d="m 385.99991,-75.999688 20,139.99966 h 20.0004 l 9.9996,-69.9999801 10.0004,69.9999801 h 19.9996 l 20.0004,-139.99966 h -20.0004 l -10,69.9996799 -9.9996,-69.9996799 h -20 l -10.0004,69.9996799 -10,-69.9996799 z" style="opacity:1;fill:#000;fill-opacity:1;fill-rule:nonzero;stroke:none;stroke-width:.17517957;stroke-linejoin:bevel;stroke-miterlimit:10;stroke-dasharray:none;stroke-opacity:1"/><path style="opacity:1;fill:#000;fill-opacity:1;fill-rule:nonzero;stroke:none;stroke-width:28.47663689;stroke-linecap:round;stroke-linejoin:miter;stroke-miterlimit:4;stroke-dasharray:none;stroke-opacity:1" id="rect860" d="m 149.99996,-75.999988 c -16.62009,0 -29.99996,13.37991 -29.99996,29.99993 v 5.33508 c 0,9.14277 4.16892,17.78648 11.32397,23.47804 l 34.90065,27.76132 c 2.38497,1.89716 3.77552,4.778 3.77552,7.82555 v 15.6001 c 0.35595,5.52857 -4.46019,10.0001 -10.00012,10.0001 h -10.00006 c -5.53994,0 -9.99971,-4.46007 -9.99971,-10.0001 V 23.999902 H 120 v 10.00013 c 0,16.62002 13.37987,29.99994 29.99996,29.99994 h 10.00006 c 16.62009,0 29.99996,-13.37992 29.99996,-29.99994 v -15.6001 c 0,-9.14276 -4.16962,-17.7864602 -11.32481,-23.4780101 L 143.77423,-32.839408 c -2.3849,-1.89717 -3.77398,-4.77802 -3.77398,-7.82555 l -4.1e-4,-5.3351 c 0,-5.54001 4.46004,-10.00007 10.00012,-10.00007 h 10.00006 c 5.53993,0 9.99971,4.46006 9.99971,10.00007 v 10.00012 h 20.00025 v -10.00012 c 0,-16.62002 -13.37987,-29.99993 -29.99996,-29.99993 z"/><rect style="opacity:1;fill:#000;fill-opacity:1;fill-rule:nonzero;stroke:none;stroke-width:2.92692137;stroke-linecap:square;stroke-linejoin:round;stroke-miterlimit:10;stroke-dasharray:none;stroke-opacity:1;paint-order:markers stroke fill" id="rect860-7" width="80" height="140" x="286" y="-76" rx="30" ry="30"/><rect id="rect862" width="40" height="100" x="306" y="-56" rx="10" ry="10" style="opacity:1;fill:#fff;fill-opacity:1;fill-rule:nonzero;stroke:none;stroke-width:1.74917066;stroke-linecap:square;stroke-linejoin:round;stroke-miterlimit:10;stroke-dasharray:none;stroke-opacity:1;paint-order:markers stroke fill"/></g></svg>